<mxfile host="app.diagrams.net" modified="2024-03-23T09:18:26.920Z" agent="Mozilla/5.0 (Windows NT 10.0; Win64; x64; rv:123.0) Gecko/20100101 Firefox/123.0" etag="XDGfQRzvnjy4P6GRtvsK" version="24.0.8" type="device">
  <diagram name="Страница — 1" id="7Uw-dCmtmqph_xWcafJa">
    <mxGraphModel dx="2261" dy="832" grid="1" gridSize="10" guides="1" tooltips="1" connect="1" arrows="1" fold="1" page="1" pageScale="1" pageWidth="827" pageHeight="1169" math="0" shadow="0">
      <root>
        <mxCell id="0" />
        <mxCell id="1" parent="0" />
        <mxCell id="WEGuKnOYoMUn4FzqH5F0-33" style="edgeStyle=orthogonalEdgeStyle;rounded=0;orthogonalLoop=1;jettySize=auto;html=1;" parent="1" source="WEGuKnOYoMUn4FzqH5F0-13" target="WEGuKnOYoMUn4FzqH5F0-23" edge="1">
          <mxGeometry relative="1" as="geometry" />
        </mxCell>
        <mxCell id="WEGuKnOYoMUn4FzqH5F0-13" value="AbstrustRoom" style="shape=table;startSize=30;container=1;collapsible=0;childLayout=tableLayout;fixedRows=1;rowLines=0;fontStyle=0;strokeColor=default;fontSize=16;" parent="1" vertex="1">
          <mxGeometry x="400" y="120" width="140" height="90" as="geometry" />
        </mxCell>
        <mxCell id="WEGuKnOYoMUn4FzqH5F0-17" value="" style="shape=tableRow;horizontal=0;startSize=0;swimlaneHead=0;swimlaneBody=0;top=0;left=0;bottom=0;right=0;collapsible=0;dropTarget=0;fillColor=none;points=[[0,0.5],[1,0.5]];portConstraint=eastwest;strokeColor=inherit;fontSize=16;" parent="WEGuKnOYoMUn4FzqH5F0-13" vertex="1">
          <mxGeometry y="30" width="140" height="30" as="geometry" />
        </mxCell>
        <mxCell id="WEGuKnOYoMUn4FzqH5F0-19" value="InDoor" style="shape=partialRectangle;html=1;whiteSpace=wrap;connectable=0;fillColor=none;top=0;left=0;bottom=0;right=0;align=left;spacingLeft=6;overflow=hidden;strokeColor=inherit;fontSize=16;" parent="WEGuKnOYoMUn4FzqH5F0-17" vertex="1">
          <mxGeometry width="140" height="30" as="geometry">
            <mxRectangle width="140" height="30" as="alternateBounds" />
          </mxGeometry>
        </mxCell>
        <mxCell id="WEGuKnOYoMUn4FzqH5F0-65" style="shape=tableRow;horizontal=0;startSize=0;swimlaneHead=0;swimlaneBody=0;top=0;left=0;bottom=0;right=0;collapsible=0;dropTarget=0;fillColor=none;points=[[0,0.5],[1,0.5]];portConstraint=eastwest;strokeColor=inherit;fontSize=16;" parent="WEGuKnOYoMUn4FzqH5F0-13" vertex="1">
          <mxGeometry y="60" width="140" height="30" as="geometry" />
        </mxCell>
        <mxCell id="WEGuKnOYoMUn4FzqH5F0-66" value="OutDoor" style="shape=partialRectangle;html=1;whiteSpace=wrap;connectable=0;fillColor=none;top=0;left=0;bottom=0;right=0;align=left;spacingLeft=6;overflow=hidden;strokeColor=inherit;fontSize=16;" parent="WEGuKnOYoMUn4FzqH5F0-65" vertex="1">
          <mxGeometry width="140" height="30" as="geometry">
            <mxRectangle width="140" height="30" as="alternateBounds" />
          </mxGeometry>
        </mxCell>
        <mxCell id="WEGuKnOYoMUn4FzqH5F0-23" value="Lava" style="shape=table;startSize=30;container=1;collapsible=0;childLayout=tableLayout;fixedRows=1;rowLines=0;fontStyle=0;strokeColor=default;fontSize=16;" parent="1" vertex="1">
          <mxGeometry x="390" y="250" width="160" height="180" as="geometry" />
        </mxCell>
        <mxCell id="WEGuKnOYoMUn4FzqH5F0-24" value="" style="shape=tableRow;horizontal=0;startSize=0;swimlaneHead=0;swimlaneBody=0;top=0;left=0;bottom=0;right=0;collapsible=0;dropTarget=0;fillColor=none;points=[[0,0.5],[1,0.5]];portConstraint=eastwest;strokeColor=inherit;fontSize=16;" parent="WEGuKnOYoMUn4FzqH5F0-23" vertex="1">
          <mxGeometry y="30" width="160" height="30" as="geometry" />
        </mxCell>
        <mxCell id="WEGuKnOYoMUn4FzqH5F0-26" value="MagmaPlatform" style="shape=partialRectangle;html=1;whiteSpace=wrap;connectable=0;fillColor=none;top=0;left=0;bottom=0;right=0;align=left;spacingLeft=6;overflow=hidden;strokeColor=inherit;fontSize=16;" parent="WEGuKnOYoMUn4FzqH5F0-24" vertex="1">
          <mxGeometry width="160" height="30" as="geometry">
            <mxRectangle width="160" height="30" as="alternateBounds" />
          </mxGeometry>
        </mxCell>
        <mxCell id="WEGuKnOYoMUn4FzqH5F0-27" value="" style="shape=tableRow;horizontal=0;startSize=0;swimlaneHead=0;swimlaneBody=0;top=0;left=0;bottom=0;right=0;collapsible=0;dropTarget=0;fillColor=none;points=[[0,0.5],[1,0.5]];portConstraint=eastwest;strokeColor=inherit;fontSize=16;" parent="WEGuKnOYoMUn4FzqH5F0-23" vertex="1">
          <mxGeometry y="60" width="160" height="30" as="geometry" />
        </mxCell>
        <mxCell id="WEGuKnOYoMUn4FzqH5F0-29" value="MagmaSpace" style="shape=partialRectangle;html=1;whiteSpace=wrap;connectable=0;fillColor=none;top=0;left=0;bottom=0;right=0;align=left;spacingLeft=6;overflow=hidden;strokeColor=inherit;fontSize=16;" parent="WEGuKnOYoMUn4FzqH5F0-27" vertex="1">
          <mxGeometry width="160" height="30" as="geometry">
            <mxRectangle width="160" height="30" as="alternateBounds" />
          </mxGeometry>
        </mxCell>
        <mxCell id="WEGuKnOYoMUn4FzqH5F0-30" value="" style="shape=tableRow;horizontal=0;startSize=0;swimlaneHead=0;swimlaneBody=0;top=0;left=0;bottom=0;right=0;collapsible=0;dropTarget=0;fillColor=none;points=[[0,0.5],[1,0.5]];portConstraint=eastwest;strokeColor=inherit;fontSize=16;" parent="WEGuKnOYoMUn4FzqH5F0-23" vertex="1">
          <mxGeometry y="90" width="160" height="30" as="geometry" />
        </mxCell>
        <mxCell id="WEGuKnOYoMUn4FzqH5F0-32" value="UsualPlatform" style="shape=partialRectangle;html=1;whiteSpace=wrap;connectable=0;fillColor=none;top=0;left=0;bottom=0;right=0;align=left;spacingLeft=6;overflow=hidden;strokeColor=inherit;fontSize=16;" parent="WEGuKnOYoMUn4FzqH5F0-30" vertex="1">
          <mxGeometry width="160" height="30" as="geometry">
            <mxRectangle width="160" height="30" as="alternateBounds" />
          </mxGeometry>
        </mxCell>
        <mxCell id="WEGuKnOYoMUn4FzqH5F0-84" style="shape=tableRow;horizontal=0;startSize=0;swimlaneHead=0;swimlaneBody=0;top=0;left=0;bottom=0;right=0;collapsible=0;dropTarget=0;fillColor=none;points=[[0,0.5],[1,0.5]];portConstraint=eastwest;strokeColor=inherit;fontSize=16;" parent="WEGuKnOYoMUn4FzqH5F0-23" vertex="1">
          <mxGeometry y="120" width="160" height="30" as="geometry" />
        </mxCell>
        <mxCell id="WEGuKnOYoMUn4FzqH5F0-85" value="MovablePlatform" style="shape=partialRectangle;html=1;whiteSpace=wrap;connectable=0;fillColor=none;top=0;left=0;bottom=0;right=0;align=left;spacingLeft=6;overflow=hidden;strokeColor=inherit;fontSize=16;" parent="WEGuKnOYoMUn4FzqH5F0-84" vertex="1">
          <mxGeometry width="160" height="30" as="geometry">
            <mxRectangle width="160" height="30" as="alternateBounds" />
          </mxGeometry>
        </mxCell>
        <mxCell id="xUy-coRWp40PhXiS_MEN-15" style="shape=tableRow;horizontal=0;startSize=0;swimlaneHead=0;swimlaneBody=0;top=0;left=0;bottom=0;right=0;collapsible=0;dropTarget=0;fillColor=none;points=[[0,0.5],[1,0.5]];portConstraint=eastwest;strokeColor=inherit;fontSize=16;" vertex="1" parent="WEGuKnOYoMUn4FzqH5F0-23">
          <mxGeometry y="150" width="160" height="30" as="geometry" />
        </mxCell>
        <mxCell id="xUy-coRWp40PhXiS_MEN-16" value="AbstructEnemy" style="shape=partialRectangle;html=1;whiteSpace=wrap;connectable=0;fillColor=none;top=0;left=0;bottom=0;right=0;align=left;spacingLeft=6;overflow=hidden;strokeColor=inherit;fontSize=16;" vertex="1" parent="xUy-coRWp40PhXiS_MEN-15">
          <mxGeometry width="160" height="30" as="geometry">
            <mxRectangle width="160" height="30" as="alternateBounds" />
          </mxGeometry>
        </mxCell>
        <mxCell id="WEGuKnOYoMUn4FzqH5F0-54" style="edgeStyle=orthogonalEdgeStyle;rounded=0;orthogonalLoop=1;jettySize=auto;html=1;entryX=0.5;entryY=0;entryDx=0;entryDy=0;" parent="1" source="WEGuKnOYoMUn4FzqH5F0-34" target="WEGuKnOYoMUn4FzqH5F0-44" edge="1">
          <mxGeometry relative="1" as="geometry" />
        </mxCell>
        <mxCell id="WEGuKnOYoMUn4FzqH5F0-60" style="edgeStyle=orthogonalEdgeStyle;rounded=0;orthogonalLoop=1;jettySize=auto;html=1;exitX=0.714;exitY=1.067;exitDx=0;exitDy=0;exitPerimeter=0;entryX=0.25;entryY=0;entryDx=0;entryDy=0;" parent="1" source="WEGuKnOYoMUn4FzqH5F0-41" target="WEGuKnOYoMUn4FzqH5F0-56" edge="1">
          <mxGeometry relative="1" as="geometry">
            <mxPoint x="830" y="150" as="sourcePoint" />
            <mxPoint x="980" y="330" as="targetPoint" />
            <Array as="points">
              <mxPoint x="730" y="200" />
              <mxPoint x="784" y="200" />
              <mxPoint x="784" y="350" />
              <mxPoint x="660" y="350" />
            </Array>
          </mxGeometry>
        </mxCell>
        <mxCell id="WEGuKnOYoMUn4FzqH5F0-34" value="AbstructPlatform" style="shape=table;startSize=30;container=1;collapsible=0;childLayout=tableLayout;fixedRows=1;rowLines=0;fontStyle=0;strokeColor=default;fontSize=16;" parent="1" vertex="1">
          <mxGeometry x="630" y="120" width="140" height="60" as="geometry" />
        </mxCell>
        <mxCell id="WEGuKnOYoMUn4FzqH5F0-41" value="" style="shape=tableRow;horizontal=0;startSize=0;swimlaneHead=0;swimlaneBody=0;top=0;left=0;bottom=0;right=0;collapsible=0;dropTarget=0;fillColor=none;points=[[0,0.5],[1,0.5]];portConstraint=eastwest;strokeColor=inherit;fontSize=16;" parent="WEGuKnOYoMUn4FzqH5F0-34" vertex="1">
          <mxGeometry y="30" width="140" height="30" as="geometry" />
        </mxCell>
        <mxCell id="WEGuKnOYoMUn4FzqH5F0-43" value="" style="shape=partialRectangle;html=1;whiteSpace=wrap;connectable=0;fillColor=none;top=0;left=0;bottom=0;right=0;align=left;spacingLeft=6;overflow=hidden;strokeColor=inherit;fontSize=16;" parent="WEGuKnOYoMUn4FzqH5F0-41" vertex="1">
          <mxGeometry width="140" height="30" as="geometry">
            <mxRectangle width="140" height="30" as="alternateBounds" />
          </mxGeometry>
        </mxCell>
        <mxCell id="xUy-coRWp40PhXiS_MEN-17" style="edgeStyle=none;curved=1;rounded=0;orthogonalLoop=1;jettySize=auto;html=1;entryX=1;entryY=0.5;entryDx=0;entryDy=0;fontSize=12;startSize=8;endSize=8;" edge="1" parent="WEGuKnOYoMUn4FzqH5F0-34" source="WEGuKnOYoMUn4FzqH5F0-41" target="WEGuKnOYoMUn4FzqH5F0-41">
          <mxGeometry relative="1" as="geometry" />
        </mxCell>
        <mxCell id="WEGuKnOYoMUn4FzqH5F0-82" style="edgeStyle=orthogonalEdgeStyle;rounded=0;orthogonalLoop=1;jettySize=auto;html=1;exitX=1;exitY=0.25;exitDx=0;exitDy=0;entryX=1;entryY=0.25;entryDx=0;entryDy=0;" parent="1" source="WEGuKnOYoMUn4FzqH5F0-44" target="WEGuKnOYoMUn4FzqH5F0-72" edge="1">
          <mxGeometry relative="1" as="geometry" />
        </mxCell>
        <mxCell id="WEGuKnOYoMUn4FzqH5F0-44" value="MagmaPlatform" style="shape=table;startSize=30;container=1;collapsible=0;childLayout=tableLayout;fixedRows=1;rowLines=0;fontStyle=0;strokeColor=default;fontSize=16;" parent="1" vertex="1">
          <mxGeometry x="590" y="210" width="140" height="60" as="geometry" />
        </mxCell>
        <mxCell id="WEGuKnOYoMUn4FzqH5F0-45" value="" style="shape=tableRow;horizontal=0;startSize=0;swimlaneHead=0;swimlaneBody=0;top=0;left=0;bottom=0;right=0;collapsible=0;dropTarget=0;fillColor=none;points=[[0,0.5],[1,0.5]];portConstraint=eastwest;strokeColor=inherit;fontSize=16;" parent="WEGuKnOYoMUn4FzqH5F0-44" vertex="1">
          <mxGeometry y="30" width="140" height="30" as="geometry" />
        </mxCell>
        <mxCell id="WEGuKnOYoMUn4FzqH5F0-47" value="DamagePerTick" style="shape=partialRectangle;html=1;whiteSpace=wrap;connectable=0;fillColor=none;top=0;left=0;bottom=0;right=0;align=left;spacingLeft=6;overflow=hidden;strokeColor=inherit;fontSize=16;" parent="WEGuKnOYoMUn4FzqH5F0-45" vertex="1">
          <mxGeometry width="140" height="30" as="geometry">
            <mxRectangle width="140" height="30" as="alternateBounds" />
          </mxGeometry>
        </mxCell>
        <mxCell id="WEGuKnOYoMUn4FzqH5F0-55" value="" style="edgeStyle=entityRelationEdgeStyle;fontSize=12;html=1;endArrow=ERzeroToMany;startArrow=ERmandOne;rounded=0;exitX=1;exitY=0.5;exitDx=0;exitDy=0;entryX=0;entryY=0.25;entryDx=0;entryDy=0;" parent="1" source="WEGuKnOYoMUn4FzqH5F0-24" target="WEGuKnOYoMUn4FzqH5F0-44" edge="1">
          <mxGeometry width="100" height="100" relative="1" as="geometry">
            <mxPoint x="620" y="410" as="sourcePoint" />
            <mxPoint x="720" y="310" as="targetPoint" />
          </mxGeometry>
        </mxCell>
        <mxCell id="WEGuKnOYoMUn4FzqH5F0-56" value="UsualPlatform" style="swimlane;fontStyle=0;childLayout=stackLayout;horizontal=1;startSize=26;horizontalStack=0;resizeParent=1;resizeParentMax=0;resizeLast=0;collapsible=1;marginBottom=0;align=center;fontSize=14;" parent="1" vertex="1">
          <mxGeometry x="620" y="360" width="160" height="56" as="geometry" />
        </mxCell>
        <mxCell id="WEGuKnOYoMUn4FzqH5F0-61" value="" style="edgeStyle=entityRelationEdgeStyle;fontSize=12;html=1;endArrow=ERzeroToMany;startArrow=ERmandOne;rounded=0;entryX=0;entryY=0.25;entryDx=0;entryDy=0;curved=0;exitX=1;exitY=0.5;exitDx=0;exitDy=0;" parent="1" source="WEGuKnOYoMUn4FzqH5F0-30" target="WEGuKnOYoMUn4FzqH5F0-56" edge="1">
          <mxGeometry width="100" height="100" relative="1" as="geometry">
            <mxPoint x="560" y="451" as="sourcePoint" />
            <mxPoint x="630" y="440" as="targetPoint" />
            <Array as="points">
              <mxPoint x="600" y="416" />
              <mxPoint x="780" y="418" />
              <mxPoint x="590" y="496" />
              <mxPoint x="720" y="392" />
              <mxPoint x="550" y="506" />
              <mxPoint x="690" y="392" />
              <mxPoint x="710" y="412" />
              <mxPoint x="710" y="392" />
              <mxPoint x="670" y="408" />
              <mxPoint x="660" y="418" />
              <mxPoint x="730" y="398" />
            </Array>
          </mxGeometry>
        </mxCell>
        <mxCell id="WEGuKnOYoMUn4FzqH5F0-72" value="MagmaSpace" style="shape=table;startSize=30;container=1;collapsible=0;childLayout=tableLayout;fixedRows=1;rowLines=0;fontStyle=0;strokeColor=default;fontSize=16;" parent="1" vertex="1">
          <mxGeometry x="604" y="284" width="140" height="60" as="geometry" />
        </mxCell>
        <mxCell id="WEGuKnOYoMUn4FzqH5F0-73" value="" style="shape=tableRow;horizontal=0;startSize=0;swimlaneHead=0;swimlaneBody=0;top=0;left=0;bottom=0;right=0;collapsible=0;dropTarget=0;fillColor=none;points=[[0,0.5],[1,0.5]];portConstraint=eastwest;strokeColor=inherit;fontSize=16;" parent="WEGuKnOYoMUn4FzqH5F0-72" vertex="1">
          <mxGeometry y="30" width="140" height="30" as="geometry" />
        </mxCell>
        <mxCell id="WEGuKnOYoMUn4FzqH5F0-75" value="DamageForFullHP" style="shape=partialRectangle;html=1;whiteSpace=wrap;connectable=0;fillColor=none;top=0;left=0;bottom=0;right=0;align=left;spacingLeft=6;overflow=hidden;strokeColor=inherit;fontSize=16;" parent="WEGuKnOYoMUn4FzqH5F0-73" vertex="1">
          <mxGeometry width="140" height="30" as="geometry">
            <mxRectangle width="140" height="30" as="alternateBounds" />
          </mxGeometry>
        </mxCell>
        <mxCell id="WEGuKnOYoMUn4FzqH5F0-83" value="" style="edgeStyle=entityRelationEdgeStyle;fontSize=12;html=1;endArrow=ERzeroToMany;startArrow=ERmandOne;rounded=0;exitX=1;exitY=0.5;exitDx=0;exitDy=0;entryX=0;entryY=0.25;entryDx=0;entryDy=0;" parent="1" source="WEGuKnOYoMUn4FzqH5F0-23" target="WEGuKnOYoMUn4FzqH5F0-72" edge="1">
          <mxGeometry width="100" height="100" relative="1" as="geometry">
            <mxPoint x="460" y="560" as="sourcePoint" />
            <mxPoint x="560" y="460" as="targetPoint" />
          </mxGeometry>
        </mxCell>
        <mxCell id="xUy-coRWp40PhXiS_MEN-1" value="MovablePlatform" style="shape=table;startSize=30;container=1;collapsible=0;childLayout=tableLayout;fixedRows=1;rowLines=0;fontStyle=0;strokeColor=default;fontSize=16;" vertex="1" parent="1">
          <mxGeometry x="620" y="430" width="160" height="60" as="geometry" />
        </mxCell>
        <mxCell id="xUy-coRWp40PhXiS_MEN-2" value="" style="shape=tableRow;horizontal=0;startSize=0;swimlaneHead=0;swimlaneBody=0;top=0;left=0;bottom=0;right=0;collapsible=0;dropTarget=0;fillColor=none;points=[[0,0.5],[1,0.5]];portConstraint=eastwest;strokeColor=inherit;fontSize=16;" vertex="1" parent="xUy-coRWp40PhXiS_MEN-1">
          <mxGeometry y="30" width="160" height="30" as="geometry" />
        </mxCell>
        <mxCell id="xUy-coRWp40PhXiS_MEN-4" value="MovingSpeed" style="shape=partialRectangle;html=1;whiteSpace=wrap;connectable=0;fillColor=none;top=0;left=0;bottom=0;right=0;align=left;spacingLeft=6;overflow=hidden;strokeColor=inherit;fontSize=16;" vertex="1" parent="xUy-coRWp40PhXiS_MEN-2">
          <mxGeometry width="160" height="30" as="geometry">
            <mxRectangle width="160" height="30" as="alternateBounds" />
          </mxGeometry>
        </mxCell>
        <mxCell id="xUy-coRWp40PhXiS_MEN-13" value="" style="edgeStyle=entityRelationEdgeStyle;fontSize=12;html=1;endArrow=ERzeroToMany;startArrow=ERmandOne;rounded=0;startSize=8;endSize=8;curved=1;exitX=1;exitY=0.5;exitDx=0;exitDy=0;entryX=0;entryY=0.25;entryDx=0;entryDy=0;" edge="1" parent="1" source="WEGuKnOYoMUn4FzqH5F0-84" target="xUy-coRWp40PhXiS_MEN-1">
          <mxGeometry width="100" height="100" relative="1" as="geometry">
            <mxPoint x="520" y="504" as="sourcePoint" />
            <mxPoint x="790" y="490" as="targetPoint" />
            <Array as="points">
              <mxPoint x="590" y="490" />
              <mxPoint x="550" y="530" />
              <mxPoint x="620" y="559" />
              <mxPoint x="660" y="530" />
              <mxPoint x="640" y="579" />
            </Array>
          </mxGeometry>
        </mxCell>
        <mxCell id="xUy-coRWp40PhXiS_MEN-19" value="" style="edgeStyle=elbowEdgeStyle;elbow=horizontal;endArrow=classic;html=1;curved=0;rounded=0;endSize=8;startSize=8;fontSize=12;exitX=0.814;exitY=1;exitDx=0;exitDy=0;exitPerimeter=0;entryX=1;entryY=0.25;entryDx=0;entryDy=0;" edge="1" parent="1" source="WEGuKnOYoMUn4FzqH5F0-41" target="xUy-coRWp40PhXiS_MEN-1">
          <mxGeometry width="50" height="50" relative="1" as="geometry">
            <mxPoint x="850" y="230" as="sourcePoint" />
            <mxPoint x="990" y="410" as="targetPoint" />
            <Array as="points">
              <mxPoint x="810" y="310" />
            </Array>
          </mxGeometry>
        </mxCell>
        <mxCell id="xUy-coRWp40PhXiS_MEN-20" value="AstructEnemy" style="shape=table;startSize=30;container=1;collapsible=0;childLayout=tableLayout;fixedRows=1;rowLines=0;fontStyle=0;strokeColor=default;fontSize=16;" vertex="1" parent="1">
          <mxGeometry x="210" y="400" width="140" height="120" as="geometry" />
        </mxCell>
        <mxCell id="xUy-coRWp40PhXiS_MEN-21" value="" style="shape=tableRow;horizontal=0;startSize=0;swimlaneHead=0;swimlaneBody=0;top=0;left=0;bottom=0;right=0;collapsible=0;dropTarget=0;fillColor=none;points=[[0,0.5],[1,0.5]];portConstraint=eastwest;strokeColor=inherit;fontSize=16;" vertex="1" parent="xUy-coRWp40PhXiS_MEN-20">
          <mxGeometry y="30" width="140" height="30" as="geometry" />
        </mxCell>
        <mxCell id="xUy-coRWp40PhXiS_MEN-23" value="HP" style="shape=partialRectangle;html=1;whiteSpace=wrap;connectable=0;fillColor=none;top=0;left=0;bottom=0;right=0;align=left;spacingLeft=6;overflow=hidden;strokeColor=inherit;fontSize=16;" vertex="1" parent="xUy-coRWp40PhXiS_MEN-21">
          <mxGeometry width="140" height="30" as="geometry">
            <mxRectangle width="140" height="30" as="alternateBounds" />
          </mxGeometry>
        </mxCell>
        <mxCell id="xUy-coRWp40PhXiS_MEN-24" value="" style="shape=tableRow;horizontal=0;startSize=0;swimlaneHead=0;swimlaneBody=0;top=0;left=0;bottom=0;right=0;collapsible=0;dropTarget=0;fillColor=none;points=[[0,0.5],[1,0.5]];portConstraint=eastwest;strokeColor=inherit;fontSize=16;" vertex="1" parent="xUy-coRWp40PhXiS_MEN-20">
          <mxGeometry y="60" width="140" height="30" as="geometry" />
        </mxCell>
        <mxCell id="xUy-coRWp40PhXiS_MEN-26" value="Resistance" style="shape=partialRectangle;html=1;whiteSpace=wrap;connectable=0;fillColor=none;top=0;left=0;bottom=0;right=0;align=left;spacingLeft=6;overflow=hidden;strokeColor=inherit;fontSize=16;" vertex="1" parent="xUy-coRWp40PhXiS_MEN-24">
          <mxGeometry width="140" height="30" as="geometry">
            <mxRectangle width="140" height="30" as="alternateBounds" />
          </mxGeometry>
        </mxCell>
        <mxCell id="xUy-coRWp40PhXiS_MEN-27" value="" style="shape=tableRow;horizontal=0;startSize=0;swimlaneHead=0;swimlaneBody=0;top=0;left=0;bottom=0;right=0;collapsible=0;dropTarget=0;fillColor=none;points=[[0,0.5],[1,0.5]];portConstraint=eastwest;strokeColor=inherit;fontSize=16;" vertex="1" parent="xUy-coRWp40PhXiS_MEN-20">
          <mxGeometry y="90" width="140" height="30" as="geometry" />
        </mxCell>
        <mxCell id="xUy-coRWp40PhXiS_MEN-29" value="GunAbstruct" style="shape=partialRectangle;html=1;whiteSpace=wrap;connectable=0;fillColor=none;top=0;left=0;bottom=0;right=0;align=left;spacingLeft=6;overflow=hidden;strokeColor=inherit;fontSize=16;" vertex="1" parent="xUy-coRWp40PhXiS_MEN-27">
          <mxGeometry width="140" height="30" as="geometry">
            <mxRectangle width="140" height="30" as="alternateBounds" />
          </mxGeometry>
        </mxCell>
        <mxCell id="xUy-coRWp40PhXiS_MEN-35" value="" style="fontSize=12;html=1;endArrow=ERzeroToMany;startArrow=ERmandOne;rounded=0;startSize=8;endSize=8;entryX=1.021;entryY=0.167;entryDx=0;entryDy=0;entryPerimeter=0;exitX=0;exitY=0.5;exitDx=0;exitDy=0;" edge="1" parent="1" source="xUy-coRWp40PhXiS_MEN-15" target="xUy-coRWp40PhXiS_MEN-20">
          <mxGeometry width="100" height="100" relative="1" as="geometry">
            <mxPoint x="150" y="470" as="sourcePoint" />
            <mxPoint x="250" y="370" as="targetPoint" />
          </mxGeometry>
        </mxCell>
        <mxCell id="xUy-coRWp40PhXiS_MEN-36" value="AbstructGun" style="shape=table;startSize=30;container=1;collapsible=0;childLayout=tableLayout;fixedRows=1;rowLines=0;fontStyle=0;strokeColor=default;fontSize=16;" vertex="1" parent="1">
          <mxGeometry x="20" y="400" width="140" height="90" as="geometry" />
        </mxCell>
        <mxCell id="xUy-coRWp40PhXiS_MEN-37" value="" style="shape=tableRow;horizontal=0;startSize=0;swimlaneHead=0;swimlaneBody=0;top=0;left=0;bottom=0;right=0;collapsible=0;dropTarget=0;fillColor=none;points=[[0,0.5],[1,0.5]];portConstraint=eastwest;strokeColor=inherit;fontSize=16;" vertex="1" parent="xUy-coRWp40PhXiS_MEN-36">
          <mxGeometry y="30" width="140" height="30" as="geometry" />
        </mxCell>
        <mxCell id="xUy-coRWp40PhXiS_MEN-39" value="AmountOfEnergy" style="shape=partialRectangle;html=1;whiteSpace=wrap;connectable=0;fillColor=none;top=0;left=0;bottom=0;right=0;align=left;spacingLeft=6;overflow=hidden;strokeColor=inherit;fontSize=16;" vertex="1" parent="xUy-coRWp40PhXiS_MEN-37">
          <mxGeometry width="140" height="30" as="geometry">
            <mxRectangle width="140" height="30" as="alternateBounds" />
          </mxGeometry>
        </mxCell>
        <mxCell id="xUy-coRWp40PhXiS_MEN-47" style="shape=tableRow;horizontal=0;startSize=0;swimlaneHead=0;swimlaneBody=0;top=0;left=0;bottom=0;right=0;collapsible=0;dropTarget=0;fillColor=none;points=[[0,0.5],[1,0.5]];portConstraint=eastwest;strokeColor=inherit;fontSize=16;" vertex="1" parent="xUy-coRWp40PhXiS_MEN-36">
          <mxGeometry y="60" width="140" height="30" as="geometry" />
        </mxCell>
        <mxCell id="xUy-coRWp40PhXiS_MEN-48" value="AbstructBullet" style="shape=partialRectangle;html=1;whiteSpace=wrap;connectable=0;fillColor=none;top=0;left=0;bottom=0;right=0;align=left;spacingLeft=6;overflow=hidden;strokeColor=inherit;fontSize=16;" vertex="1" parent="xUy-coRWp40PhXiS_MEN-47">
          <mxGeometry width="140" height="30" as="geometry">
            <mxRectangle width="140" height="30" as="alternateBounds" />
          </mxGeometry>
        </mxCell>
        <mxCell id="xUy-coRWp40PhXiS_MEN-46" value="" style="edgeStyle=orthogonalEdgeStyle;fontSize=12;html=1;endArrow=ERzeroToMany;startArrow=ERmandOne;rounded=0;startSize=8;endSize=8;entryX=1;entryY=0.25;entryDx=0;entryDy=0;exitX=0;exitY=0.5;exitDx=0;exitDy=0;" edge="1" parent="1" source="xUy-coRWp40PhXiS_MEN-27" target="xUy-coRWp40PhXiS_MEN-36">
          <mxGeometry width="100" height="100" relative="1" as="geometry">
            <mxPoint x="120" y="750" as="sourcePoint" />
            <mxPoint x="220" y="650" as="targetPoint" />
            <Array as="points">
              <mxPoint x="190" y="505" />
              <mxPoint x="190" y="423" />
            </Array>
          </mxGeometry>
        </mxCell>
        <mxCell id="xUy-coRWp40PhXiS_MEN-49" value="AbstructBullet" style="shape=table;startSize=30;container=1;collapsible=0;childLayout=tableLayout;fixedRows=1;rowLines=0;fontStyle=0;strokeColor=default;fontSize=16;" vertex="1" parent="1">
          <mxGeometry x="-160" y="400" width="140" height="60" as="geometry" />
        </mxCell>
        <mxCell id="xUy-coRWp40PhXiS_MEN-53" value="" style="shape=tableRow;horizontal=0;startSize=0;swimlaneHead=0;swimlaneBody=0;top=0;left=0;bottom=0;right=0;collapsible=0;dropTarget=0;fillColor=none;points=[[0,0.5],[1,0.5]];portConstraint=eastwest;strokeColor=inherit;fontSize=16;" vertex="1" parent="xUy-coRWp40PhXiS_MEN-49">
          <mxGeometry y="30" width="140" height="30" as="geometry" />
        </mxCell>
        <mxCell id="xUy-coRWp40PhXiS_MEN-55" value="" style="shape=partialRectangle;html=1;whiteSpace=wrap;connectable=0;fillColor=none;top=0;left=0;bottom=0;right=0;align=left;spacingLeft=6;overflow=hidden;strokeColor=inherit;fontSize=16;" vertex="1" parent="xUy-coRWp40PhXiS_MEN-53">
          <mxGeometry width="140" height="30" as="geometry">
            <mxRectangle width="140" height="30" as="alternateBounds" />
          </mxGeometry>
        </mxCell>
        <mxCell id="xUy-coRWp40PhXiS_MEN-59" value="" style="edgeStyle=entityRelationEdgeStyle;fontSize=12;html=1;endArrow=ERzeroToMany;startArrow=ERmandOne;rounded=0;startSize=8;endSize=8;curved=1;entryX=1;entryY=0.25;entryDx=0;entryDy=0;exitX=0;exitY=0.5;exitDx=0;exitDy=0;" edge="1" parent="1" source="xUy-coRWp40PhXiS_MEN-47" target="xUy-coRWp40PhXiS_MEN-49">
          <mxGeometry width="100" height="100" relative="1" as="geometry">
            <mxPoint x="120" y="690" as="sourcePoint" />
            <mxPoint x="220" y="590" as="targetPoint" />
          </mxGeometry>
        </mxCell>
        <mxCell id="xUy-coRWp40PhXiS_MEN-60" value="Player" style="shape=table;startSize=30;container=1;collapsible=0;childLayout=tableLayout;fixedRows=1;rowLines=0;fontStyle=0;strokeColor=default;fontSize=16;" vertex="1" parent="1">
          <mxGeometry x="200" y="550" width="140" height="210" as="geometry" />
        </mxCell>
        <mxCell id="xUy-coRWp40PhXiS_MEN-99" style="shape=tableRow;horizontal=0;startSize=0;swimlaneHead=0;swimlaneBody=0;top=0;left=0;bottom=0;right=0;collapsible=0;dropTarget=0;fillColor=none;points=[[0,0.5],[1,0.5]];portConstraint=eastwest;strokeColor=inherit;fontSize=16;" vertex="1" parent="xUy-coRWp40PhXiS_MEN-60">
          <mxGeometry y="30" width="140" height="30" as="geometry" />
        </mxCell>
        <mxCell id="xUy-coRWp40PhXiS_MEN-100" value="HP" style="shape=partialRectangle;html=1;whiteSpace=wrap;connectable=0;fillColor=none;top=0;left=0;bottom=0;right=0;align=left;spacingLeft=6;overflow=hidden;strokeColor=inherit;fontSize=16;" vertex="1" parent="xUy-coRWp40PhXiS_MEN-99">
          <mxGeometry width="140" height="30" as="geometry">
            <mxRectangle width="140" height="30" as="alternateBounds" />
          </mxGeometry>
        </mxCell>
        <mxCell id="xUy-coRWp40PhXiS_MEN-61" value="" style="shape=tableRow;horizontal=0;startSize=0;swimlaneHead=0;swimlaneBody=0;top=0;left=0;bottom=0;right=0;collapsible=0;dropTarget=0;fillColor=none;points=[[0,0.5],[1,0.5]];portConstraint=eastwest;strokeColor=inherit;fontSize=16;" vertex="1" parent="xUy-coRWp40PhXiS_MEN-60">
          <mxGeometry y="60" width="140" height="30" as="geometry" />
        </mxCell>
        <mxCell id="xUy-coRWp40PhXiS_MEN-63" value="Shield" style="shape=partialRectangle;html=1;whiteSpace=wrap;connectable=0;fillColor=none;top=0;left=0;bottom=0;right=0;align=left;spacingLeft=6;overflow=hidden;strokeColor=inherit;fontSize=16;" vertex="1" parent="xUy-coRWp40PhXiS_MEN-61">
          <mxGeometry width="140" height="30" as="geometry">
            <mxRectangle width="140" height="30" as="alternateBounds" />
          </mxGeometry>
        </mxCell>
        <mxCell id="xUy-coRWp40PhXiS_MEN-64" value="" style="shape=tableRow;horizontal=0;startSize=0;swimlaneHead=0;swimlaneBody=0;top=0;left=0;bottom=0;right=0;collapsible=0;dropTarget=0;fillColor=none;points=[[0,0.5],[1,0.5]];portConstraint=eastwest;strokeColor=inherit;fontSize=16;" vertex="1" parent="xUy-coRWp40PhXiS_MEN-60">
          <mxGeometry y="90" width="140" height="30" as="geometry" />
        </mxCell>
        <mxCell id="xUy-coRWp40PhXiS_MEN-66" value="Enetgy" style="shape=partialRectangle;html=1;whiteSpace=wrap;connectable=0;fillColor=none;top=0;left=0;bottom=0;right=0;align=left;spacingLeft=6;overflow=hidden;strokeColor=inherit;fontSize=16;" vertex="1" parent="xUy-coRWp40PhXiS_MEN-64">
          <mxGeometry width="140" height="30" as="geometry">
            <mxRectangle width="140" height="30" as="alternateBounds" />
          </mxGeometry>
        </mxCell>
        <mxCell id="xUy-coRWp40PhXiS_MEN-67" value="" style="shape=tableRow;horizontal=0;startSize=0;swimlaneHead=0;swimlaneBody=0;top=0;left=0;bottom=0;right=0;collapsible=0;dropTarget=0;fillColor=none;points=[[0,0.5],[1,0.5]];portConstraint=eastwest;strokeColor=inherit;fontSize=16;" vertex="1" parent="xUy-coRWp40PhXiS_MEN-60">
          <mxGeometry y="120" width="140" height="30" as="geometry" />
        </mxCell>
        <mxCell id="xUy-coRWp40PhXiS_MEN-69" value="AbstructAbility" style="shape=partialRectangle;html=1;whiteSpace=wrap;connectable=0;fillColor=none;top=0;left=0;bottom=0;right=0;align=left;spacingLeft=6;overflow=hidden;strokeColor=inherit;fontSize=16;" vertex="1" parent="xUy-coRWp40PhXiS_MEN-67">
          <mxGeometry width="140" height="30" as="geometry">
            <mxRectangle width="140" height="30" as="alternateBounds" />
          </mxGeometry>
        </mxCell>
        <mxCell id="xUy-coRWp40PhXiS_MEN-70" style="shape=tableRow;horizontal=0;startSize=0;swimlaneHead=0;swimlaneBody=0;top=0;left=0;bottom=0;right=0;collapsible=0;dropTarget=0;fillColor=none;points=[[0,0.5],[1,0.5]];portConstraint=eastwest;strokeColor=inherit;fontSize=16;" vertex="1" parent="xUy-coRWp40PhXiS_MEN-60">
          <mxGeometry y="150" width="140" height="30" as="geometry" />
        </mxCell>
        <mxCell id="xUy-coRWp40PhXiS_MEN-71" value="AbstructBonus" style="shape=partialRectangle;html=1;whiteSpace=wrap;connectable=0;fillColor=none;top=0;left=0;bottom=0;right=0;align=left;spacingLeft=6;overflow=hidden;strokeColor=inherit;fontSize=16;" vertex="1" parent="xUy-coRWp40PhXiS_MEN-70">
          <mxGeometry width="140" height="30" as="geometry">
            <mxRectangle width="140" height="30" as="alternateBounds" />
          </mxGeometry>
        </mxCell>
        <mxCell id="xUy-coRWp40PhXiS_MEN-72" style="shape=tableRow;horizontal=0;startSize=0;swimlaneHead=0;swimlaneBody=0;top=0;left=0;bottom=0;right=0;collapsible=0;dropTarget=0;fillColor=none;points=[[0,0.5],[1,0.5]];portConstraint=eastwest;strokeColor=inherit;fontSize=16;" vertex="1" parent="xUy-coRWp40PhXiS_MEN-60">
          <mxGeometry y="180" width="140" height="30" as="geometry" />
        </mxCell>
        <mxCell id="xUy-coRWp40PhXiS_MEN-73" value="AbstructGun" style="shape=partialRectangle;html=1;whiteSpace=wrap;connectable=0;fillColor=none;top=0;left=0;bottom=0;right=0;align=left;spacingLeft=6;overflow=hidden;strokeColor=inherit;fontSize=16;" vertex="1" parent="xUy-coRWp40PhXiS_MEN-72">
          <mxGeometry width="140" height="30" as="geometry">
            <mxRectangle width="140" height="30" as="alternateBounds" />
          </mxGeometry>
        </mxCell>
        <mxCell id="xUy-coRWp40PhXiS_MEN-74" value="AbstructAbility" style="shape=table;startSize=30;container=1;collapsible=0;childLayout=tableLayout;fixedRows=1;rowLines=0;fontStyle=0;strokeColor=default;fontSize=16;" vertex="1" parent="1">
          <mxGeometry x="580" y="550" width="140" height="60" as="geometry" />
        </mxCell>
        <mxCell id="xUy-coRWp40PhXiS_MEN-75" value="" style="shape=tableRow;horizontal=0;startSize=0;swimlaneHead=0;swimlaneBody=0;top=0;left=0;bottom=0;right=0;collapsible=0;dropTarget=0;fillColor=none;points=[[0,0.5],[1,0.5]];portConstraint=eastwest;strokeColor=inherit;fontSize=16;" vertex="1" parent="xUy-coRWp40PhXiS_MEN-74">
          <mxGeometry y="30" width="140" height="30" as="geometry" />
        </mxCell>
        <mxCell id="xUy-coRWp40PhXiS_MEN-77" value="" style="shape=partialRectangle;html=1;whiteSpace=wrap;connectable=0;fillColor=none;top=0;left=0;bottom=0;right=0;align=left;spacingLeft=6;overflow=hidden;strokeColor=inherit;fontSize=16;" vertex="1" parent="xUy-coRWp40PhXiS_MEN-75">
          <mxGeometry width="140" height="30" as="geometry">
            <mxRectangle width="140" height="30" as="alternateBounds" />
          </mxGeometry>
        </mxCell>
        <mxCell id="xUy-coRWp40PhXiS_MEN-85" value="AbstructBonus" style="shape=table;startSize=30;container=1;collapsible=0;childLayout=tableLayout;fixedRows=1;rowLines=0;fontStyle=0;strokeColor=default;fontSize=16;" vertex="1" parent="1">
          <mxGeometry x="404" y="550" width="140" height="60" as="geometry" />
        </mxCell>
        <mxCell id="xUy-coRWp40PhXiS_MEN-86" value="" style="shape=tableRow;horizontal=0;startSize=0;swimlaneHead=0;swimlaneBody=0;top=0;left=0;bottom=0;right=0;collapsible=0;dropTarget=0;fillColor=none;points=[[0,0.5],[1,0.5]];portConstraint=eastwest;strokeColor=inherit;fontSize=16;" vertex="1" parent="xUy-coRWp40PhXiS_MEN-85">
          <mxGeometry y="30" width="140" height="30" as="geometry" />
        </mxCell>
        <mxCell id="xUy-coRWp40PhXiS_MEN-88" value="" style="shape=partialRectangle;html=1;whiteSpace=wrap;connectable=0;fillColor=none;top=0;left=0;bottom=0;right=0;align=left;spacingLeft=6;overflow=hidden;strokeColor=inherit;fontSize=16;" vertex="1" parent="xUy-coRWp40PhXiS_MEN-86">
          <mxGeometry width="140" height="30" as="geometry">
            <mxRectangle width="140" height="30" as="alternateBounds" />
          </mxGeometry>
        </mxCell>
        <mxCell id="xUy-coRWp40PhXiS_MEN-96" value="" style="edgeStyle=orthogonalEdgeStyle;fontSize=12;html=1;endArrow=ERzeroToMany;startArrow=ERmandOne;rounded=0;startSize=8;endSize=8;exitX=1;exitY=0.75;exitDx=0;exitDy=0;entryX=0;entryY=0.25;entryDx=0;entryDy=0;" edge="1" parent="1" source="xUy-coRWp40PhXiS_MEN-60" target="xUy-coRWp40PhXiS_MEN-85">
          <mxGeometry width="100" height="100" relative="1" as="geometry">
            <mxPoint x="430" y="750" as="sourcePoint" />
            <mxPoint x="530" y="650" as="targetPoint" />
          </mxGeometry>
        </mxCell>
        <mxCell id="xUy-coRWp40PhXiS_MEN-97" value="" style="edgeStyle=orthogonalEdgeStyle;fontSize=12;html=1;endArrow=ERzeroToMany;startArrow=ERmandOne;rounded=0;startSize=8;endSize=8;entryX=0;entryY=0.25;entryDx=0;entryDy=0;exitX=1;exitY=0.5;exitDx=0;exitDy=0;" edge="1" parent="1" source="xUy-coRWp40PhXiS_MEN-67" target="xUy-coRWp40PhXiS_MEN-74">
          <mxGeometry width="100" height="100" relative="1" as="geometry">
            <mxPoint x="360" y="540" as="sourcePoint" />
            <mxPoint x="500" y="500" as="targetPoint" />
            <Array as="points">
              <mxPoint x="360" y="685" />
              <mxPoint x="360" y="540" />
              <mxPoint x="560" y="540" />
              <mxPoint x="560" y="565" />
            </Array>
          </mxGeometry>
        </mxCell>
        <mxCell id="xUy-coRWp40PhXiS_MEN-98" value="" style="edgeStyle=orthogonalEdgeStyle;fontSize=12;html=1;endArrow=ERzeroToMany;startArrow=ERmandOne;rounded=0;startSize=8;endSize=8;entryX=1;entryY=0.25;entryDx=0;entryDy=0;exitX=0;exitY=0.5;exitDx=0;exitDy=0;" edge="1" parent="1" source="xUy-coRWp40PhXiS_MEN-72" target="xUy-coRWp40PhXiS_MEN-36">
          <mxGeometry width="100" height="100" relative="1" as="geometry">
            <mxPoint x="290" y="755" as="sourcePoint" />
            <mxPoint x="160" y="630" as="targetPoint" />
            <Array as="points">
              <mxPoint x="180" y="745" />
              <mxPoint x="180" y="423" />
            </Array>
          </mxGeometry>
        </mxCell>
      </root>
    </mxGraphModel>
  </diagram>
</mxfile>
